<svg xmlns="http://www.w3.org/2000/svg" width="16.382" height="23.229" viewBox="0 0 16.382 23.229">
    <path data-name="Path 1227" d="m120.4 15.9 3.064-.8 1.3-4.383-.085-.9a.158.158 0 0 0-.155-.143h-5.2V9.6a.237.237 0 0 1 .237-.237h2.076V7.644l1.039-3.887-.088-.577a.158.158 0 0 0-.158-.131h-.842v-.41a.158.158 0 0 0-.158-.158h-4.769v-.074a.237.237 0 0 1 .237-.237h.286V1.061a.143.143 0 0 0-.036-.1l-.267-.356h-.049l1.3-.179a.164.164 0 0 0 .137-.158v-.11a.158.158 0 0 0-.154-.158h-3.085a.158.158 0 0 0-.158.158v.125a.161.161 0 0 0 .137.158l1.3.179h-.046l-.271.343a.158.158 0 0 0-.033.1V2.48h-4.24a.158.158 0 0 0-.158.158v.4h-.842a.158.158 0 0 0-.155.131l-.091.577 1.042 3.887v2.035h-2.881a.158.158 0 0 0-.158.14l-.1.912 1.3 4.383 3.064.8v6.72a.608.608 0 0 0 .608.608h6.462a.608.608 0 0 0 .593-.608v-5.949c-1.052-.049-3.617-.222-3.617-.769h.04zm-8.9-11.341h10.133l-.8 2.991H112.3zm-1.4 9.209-.529-1.784h13.981l-.529 1.784z" transform="translate(-108.38)" style="fill:#1a1a1a"/>
</svg>
