<svg id="Bed_Room" data-name="Bed Room" xmlns="http://www.w3.org/2000/svg" width="31.257" height="25.612" viewBox="0 0 31.257 25.612">
  <path id="Path_22" data-name="Path 22" d="M19.169,47.6c0-2.055.014-4.11-.009-6.165,0-.435.111-.632.552-.731q6.9-1.556,13.778-3.16c.511-.119.6,0,.592.481-.027,1.4-.015,2.8-.007,4.2,0,.347-.016.466-.473.435a8.663,8.663,0,0,0-2.54.145c-2.718.643-5.417,1.388-8.119,2.081a2.562,2.562,0,0,0-2.21,2.665.719.719,0,0,0,.579.872C25.176,49.8,29.03,51.209,32.887,52.6c1.8.652,3.615,1.272,5.4,1.968a1.515,1.515,0,0,0,1.441-.136c3.324-1.864,6.661-3.7,10-5.548.588-.325.6-.324.607.323.033,1.849.072,3.7.087,5.548a2.042,2.042,0,0,1-1.339,2,1.705,1.705,0,0,1-2.115-.733c-.19-.313-.3-.346-.6-.142q-2.538,1.75-5.1,3.454a.79.79,0,0,0-.373.793,2.819,2.819,0,0,1-.628,2.085,2.386,2.386,0,0,1-2.363.85,1.963,1.963,0,0,1-1.606-1.472,4.056,4.056,0,0,1-.087-1.205.66.66,0,0,0-.439-.728q-6.271-2.79-12.524-5.618c-.325-.148-.407-.076-.577.232a3.037,3.037,0,0,1-.965,1.152A1.628,1.628,0,0,1,19.221,53.9c-.02-2.1,0-4.2,0-6.3Z" transform="translate(-19.16 -37.503)" fill="#306a9e"/>
  <path id="Path_23" data-name="Path 23" d="M83.669,87.2c.121.455-.136.721-.594.967q-5.136,2.723-10.24,5.5a1.135,1.135,0,0,1-1.014.073q-6.747-2.391-13.5-4.757c-.636-.225-.765-.5-.339-1.019a2.7,2.7,0,0,1,1.166-.858c3.834-1.239,7.677-2.454,11.536-3.609a4.447,4.447,0,0,1,2.066-.049c3.134.63,6.253,1.335,9.379,2.013.087.019.178.027.264.051C83.36,85.776,83.627,86.118,83.669,87.2Z" transform="translate(-52.503 -77.129)" fill="#306a9e"/>
</svg>
