<svg xmlns="http://www.w3.org/2000/svg" xmlns:xlink="http://www.w3.org/1999/xlink" width="44.481" height="44.481" viewBox="0 0 44.481 44.481">
  <defs>
    <filter id="Path_1125" x="0" y="0.003" width="44.478" height="44.478" filterUnits="userSpaceOnUse">
      <feOffset input="SourceAlpha"/>
      <feGaussianBlur stdDeviation="5" result="blur"/>
      <feFlood flood-opacity="0.161"/>
      <feComposite operator="in" in2="blur"/>
      <feComposite in="SourceGraphic"/>
    </filter>
    <filter id="Path_1126" x="0" y="0" width="44.481" height="44.481" filterUnits="userSpaceOnUse">
      <feOffset input="SourceAlpha"/>
      <feGaussianBlur stdDeviation="5" result="blur-2"/>
      <feFlood flood-opacity="0.161"/>
      <feComposite operator="in" in2="blur-2"/>
      <feComposite in="SourceGraphic"/>
    </filter>
  </defs>
  <g id="Group_571" data-name="Group 571" transform="translate(15.534 15.534)">
    <g transform="matrix(1, 0, 0, 1, -15.53, -15.53)" filter="url(#Path_1125)">
      <path id="Path_1125-2" data-name="Path 1125" d="M8.882,1.206h8.147a1.351,1.351,0,0,0,.244-.011A.6.6,0,0,0,17.191,0c-.05,0-.1,0-.151,0H.728A1.06,1.06,0,0,0,.413.037.6.6,0,0,0,.005.682a.612.612,0,0,0,.56.522c.062,0,.125,0,.188,0Z" transform="translate(15.53 28.09) rotate(-45)" fill="#3a3a3a" stroke="#3a3a3a" stroke-width="0.75"/>
    </g>
    <g transform="matrix(1, 0, 0, 1, -15.53, -15.53)" filter="url(#Path_1126)">
      <path id="Path_1126-2" data-name="Path 1126" d="M8.884,0H.661A.6.6,0,0,0,.038.8a.588.588,0,0,0,.52.4,1.651,1.651,0,0,0,.188,0H17.021a1.155,1.155,0,0,0,.315-.031.6.6,0,0,0,.427-.629A.613.613,0,0,0,17.2,0c-.062,0-.125,0-.188,0Z" transform="translate(16.39 15.53) rotate(45)" fill="#3a3a3a" stroke="#3a3a3a" stroke-width="0.75"/>
    </g>
  </g>
</svg>
