<svg xmlns="http://www.w3.org/2000/svg" width="9.469" height="18.138" viewBox="0 0 9.469 18.138">
    <path data-name="Path 1204" d="M64.347 3.522c.561-.019 1.122 0 1.686-.006h.232V.594c-.3-.029-.614-.073-.928-.088C64.76.48 64.183.451 63.606.464a4.243 4.243 0 0 0-2.442.755 3.653 3.653 0 0 0-1.464 2.44 8.561 8.561 0 0 0-.1 1.254c-.017.657 0 1.312 0 1.969v.245h-2.8v3.265h2.78V18.6h3.4v-8.195h2.771l.427-3.279h-3.223s.008-1.618.028-2.321c.028-.962.6-1.255 1.369-1.283" transform="translate(-56.795 -.461)" style="fill:#fff;fill-rule:evenodd"/>
</svg>
