<svg xmlns="http://www.w3.org/2000/svg" xmlns:xlink="http://www.w3.org/1999/xlink" width="23.859" height="30" viewBox="0 0 23.859 30">
  <defs>
    <clipPath id="clip-path">
      <path id="Path_1068" data-name="Path 1068" d="M10.289.218a.975.975,0,0,0-.142,1.372l2.511,3.093a.975.975,0,0,1-1.625,1.061l-.723-.891L7.912,1.9l0,0A.975.975,0,0,0,6.347,3.06L10.5,8.18A.975.975,0,0,1,8.987,9.41L3.009,2.043a.979.979,0,0,1-.08-.117L1.733.454A.976.976,0,0,0,.218,1.684L11.313,15.419c1.67-.272,6.3-7.708,2.47-12.425L11.661.361A.975.975,0,0,0,10.289.218" fill="#2e5181"/>
    </clipPath>
    <clipPath id="clip-path-2">
      <path id="Path_1069" data-name="Path 1069" d="M.969,0a.975.975,0,0,0-.75,1.591l.337.416.1.12A.962.962,0,0,0,.721,2.2.975.975,0,0,0,2.168.9L1.733.361A.974.974,0,0,0,.981,0Z" fill="#2e5181"/>
    </clipPath>
    <clipPath id="clip-path-3">
      <path id="Path_1070" data-name="Path 1070" d="M10.789,12.425,0,25.729H12.547l10.789-13.3L13.259,0c1.061,1.661,2.442,5.71-2.47,12.425" fill="#eb0000"/>
    </clipPath>
  </defs>
  <g id="Group_454" data-name="Group 454" transform="translate(-1577 971.003) rotate(-90)">
    <g id="Group_429" data-name="Group 429" transform="translate(969.726 1577) rotate(90)">
      <g id="Group_429-2" data-name="Group 429" transform="translate(0 0)" clip-path="url(#clip-path)">
        <rect id="Rectangle_394" data-name="Rectangle 394" width="21.652" height="22.704" transform="translate(-6.203 12.456) rotate(-64.026)" fill="#2e5181"/>
      </g>
    </g>
    <g id="Group_430" data-name="Group 430" transform="translate(971.003 1580.892) rotate(90)">
      <g id="Group_431" data-name="Group 431" transform="translate(0)" clip-path="url(#clip-path-2)">
        <rect id="Rectangle_395" data-name="Rectangle 395" width="3.476" height="3.496" transform="matrix(0.438, -0.899, 0.899, 0.438, -1.14, 2.09)" fill="#2e5181"/>
      </g>
    </g>
    <g id="Group_431-2" data-name="Group 431" transform="translate(966.733 1577.523) rotate(90)">
      <g id="Group_433" data-name="Group 433" clip-path="url(#clip-path-3)">
        <rect id="Rectangle_396" data-name="Rectangle 396" width="34.73" height="34.506" transform="translate(-12.752 14.566) rotate(-48.8)" fill="#eb0000"/>
      </g>
    </g>
  </g>
</svg>
