<svg xmlns="http://www.w3.org/2000/svg" width="11.8" height="14.522" viewBox="0 0 11.8 14.522">
    <defs>
        <clipPath id="xziq23y73a">
            <path data-name="Rectangle 814" style="fill:#c5c5c5" d="M0 0h11.8v14.522H0z"/>
        </clipPath>
    </defs>
    <g data-name="Group 788">
        <g data-name="Group 787" style="clip-path:url(#xziq23y73a)">
            <path data-name="Path 1189" d="M2.281 5.457V3.651A3.552 3.552 0 0 1 4.82.164a3.578 3.578 0 0 1 4.674 3.247c.041.665.006 1.335.006 2.014a8.048 8.048 0 0 1 .846.081 1.766 1.766 0 0 1 1.441 1.725 312.49 312.49 0 0 1 0 5.562 1.788 1.788 0 0 1-1.9 1.727q-3.982.008-7.965 0a2.663 2.663 0 0 1-.36-.028 1.769 1.769 0 0 1-1.548-1.73Q-.009 9.982.007 7.2a1.806 1.806 0 0 1 1.758-1.743h.516M5.9 13.62h4.014a.9.9 0 0 0 .973-.958q.011-2.665 0-5.33a.886.886 0 0 0-.96-.972q-4.031-.013-8.061 0a.883.883 0 0 0-.955.975q-.007 2.649 0 5.3a.908.908 0 0 0 1.008.988H5.9m2.664-8.181a19.963 19.963 0 0 0-.017-2.33A2.577 2.577 0 0 0 6.181.921 2.627 2.627 0 0 0 3.358 2.65a9.429 9.429 0 0 0-.19 2.792z" transform="translate(0 -.001)" style="fill:#c5c5c5"/>
            <path data-name="Path 1190" d="M76.306 126.8c0-.153-.008-.307 0-.46a.62.62 0 0 0-.207-.545.865.865 0 0 1 .028-1.26.9.9 0 0 1 1.245.009.868.868 0 0 1 .011 1.261.606.606 0 0 0-.2.516c.012.361.008.723 0 1.084-.006.326-.164.491-.447.488s-.425-.17-.433-.5v-.591" transform="translate(-70.848 -116.101)" style="fill:#c5c5c5"/>
        </g>
    </g>
</svg>
