<svg xmlns="http://www.w3.org/2000/svg" width="17.58" height="17.572" viewBox="0 0 17.58 17.572">
    <path data-name="Path 1207" d="M115.8 5.214a4.661 4.661 0 0 0-1.422-3 4.875 4.875 0 0 0-3.223-1.309 63.54 63.54 0 0 0-8.695.1 4.437 4.437 0 0 0-3.8 3.414c-.418 1.5-.336 8.39-.091 9.869a4.45 4.45 0 0 0 3.532 3.834 52.065 52.065 0 0 0 9.731.065 4.457 4.457 0 0 0 3.85-3.515c.4-1.536.262-8.069.121-9.454M114.182 14a2.977 2.977 0 0 1-2.8 2.656c-1.418.156-7.75.241-9.066-.127a2.884 2.884 0 0 1-2.187-2.483 58.909 58.909 0 0 1 0-8.872 2.971 2.971 0 0 1 2.786-2.644 62 62 0 0 1 8.653.035 2.975 2.975 0 0 1 2.65 2.8 63.082 63.082 0 0 1-.036 8.635m-7.028-8.913a4.507 4.507 0 1 0 4.5 4.51 4.507 4.507 0 0 0-4.5-4.51m-.031 7.419a2.915 2.915 0 1 1 2.941-2.888 2.914 2.914 0 0 1-2.941 2.888m5.77-7.59a1.055 1.055 0 1 1-1.053-1.058 1.055 1.055 0 0 1 1.053 1.058" transform="translate(-98.363 -.806)" style="fill:#fff"/>
</svg>
