<svg xmlns="http://www.w3.org/2000/svg" width="18.005" height="18" viewBox="0 0 18.005 18">
    <path d="M305.531 314.845h-1.055l-.381-.044a9.054 9.054 0 0 1-7.957-7.427c-.059-.332-.092-.669-.138-1v-1.053l.033-.187c.053-.377.083-.758.163-1.129a9.037 9.037 0 0 1 9.719-7.11 8.576 8.576 0 0 1 4.73 1.959 8.839 8.839 0 0 1 3.355 6.78 8.418 8.418 0 0 1-1.053 4.421 8.912 8.912 0 0 1-6.392 4.649c-.338.065-.682.096-1.024.141zm1.514-7.211a6.98 6.98 0 0 0 .1-3.581h-4.2a8.584 8.584 0 0 0 0 3.581zm-5.917-3.57a.358.358 0 0 0-.073-.016h-2.883c-.107 0-.119.062-.141.139a6.122 6.122 0 0 0-.01 3.3c.034.125.082.166.213.165.908-.006 1.817 0 2.725 0 .056 0 .111 0 .186-.008a17.893 17.893 0 0 1-.017-3.58zm10.9-.006h-3.071a18.776 18.776 0 0 1 0 3.574h3.068a6.226 6.226 0 0 0 .007-3.575zm-8.733-1.825h3.4a11.756 11.756 0 0 0-1.7-3.578 13 13 0 0 0-1.695 3.578zm0 7.222a11.745 11.745 0 0 0 1.7 3.578 12.935 12.935 0 0 0 1.7-3.578zm7.913-7.222a7.35 7.35 0 0 0-3.86-3.227c.039.088.061.141.088.192a14 14 0 0 1 1.132 2.923c.029.119.1.123.19.123h2.286c.041 0 .086 0 .163-.01zm-8.56 10.445c-.036-.08-.054-.122-.075-.163a14.205 14.205 0 0 1-1.146-2.954c-.029-.121-.1-.121-.191-.121h-2.285c-.044 0-.088.007-.163.013a7.333 7.333 0 0 0 3.867 3.225zm8.556-3.221a.768.768 0 0 0-.1-.016h-2.391c-.115 0-.133.06-.155.145a12.736 12.736 0 0 1-1.124 2.905c-.027.052-.049.107-.085.188a7.346 7.346 0 0 0 3.852-3.216zM302.663 299a7.614 7.614 0 0 0-3.859 3.23h2.6a14.812 14.812 0 0 1 1.259-3.23z" transform="translate(-296 -296.845)" style="fill:#143d61"/>
</svg>
