<svg xmlns="http://www.w3.org/2000/svg" width="13.079" height="16.991" viewBox="0 0 13.079 16.991">
    <path d="M387.34 360.946c-.4-.516-.758-1.029-1.164-1.5-.868-1.016-1.768-2-2.638-3.018a13.1 13.1 0 0 1-2.172-3.3 6.48 6.48 0 0 1 2.716-8.309 6.575 6.575 0 0 1 9.544 3.887 6.677 6.677 0 0 1-.719 5.162 18.215 18.215 0 0 1-2.342 3.165c-.957 1.11-1.892 2.238-2.832 3.362-.145.166-.26.36-.393.551zm3.915-10.452a3.928 3.928 0 1 0-3.948 3.929 3.987 3.987 0 0 0 3.948-3.928z" transform="translate(-380.785 -343.955)" style="fill:#eb0000"/>
</svg>
