<svg xmlns="http://www.w3.org/2000/svg" width="8" height="10.393" viewBox="0 0 8 10.393">
    <path d="M384.794 354.348c-.243-.316-.463-.63-.712-.92-.531-.622-1.081-1.226-1.614-1.846a8.009 8.009 0 0 1-1.329-2.019 3.963 3.963 0 0 1 1.661-5.082 4.022 4.022 0 0 1 5.837 2.377 4.084 4.084 0 0 1-.44 3.157 11.14 11.14 0 0 1-1.433 1.936c-.585.679-1.157 1.369-1.732 2.056-.086.105-.156.224-.238.341zm2.395-6.393a2.4 2.4 0 1 0-2.415 2.4 2.439 2.439 0 0 0 2.415-2.4z" transform="translate(-380.785 -343.955)" style="fill:#fff"/>
</svg>
