<svg id="png-clipart-earth-and-plane-illustration-flight-travel-computer-icons-airplane-tourist-logo-monochrome" xmlns="http://www.w3.org/2000/svg" width="30.514" height="22" viewBox="0 0 30.514 22">
  <path id="Path_24" data-name="Path 24" d="M24.061,58.758l-1.276.414c-.1-.358-.2-.7-.281-1.04a1.612,1.612,0,0,0-.589-.915c-.345-.273-.683-.554-1.024-.833-.033-.027-.069-.052-.142-.106a9.5,9.5,0,0,0,.442,3.362l-.1.044a.282.282,0,0,1-.406-.119,1.609,1.609,0,0,0-1.174-.678.183.183,0,0,1-.117-.126,10.3,10.3,0,0,1-.172-2.35,10.415,10.415,0,0,1,1.024-4.3,11.366,11.366,0,0,1,1.707-2.575,11.019,11.019,0,0,1,2.677-2.273A10.414,10.414,0,0,1,28.573,45.9a12.289,12.289,0,0,1,3.837.042,10.432,10.432,0,0,1,4.824,2.218,10.8,10.8,0,0,1,2.743,3.24.963.963,0,0,1,.042.1c-.18.1-.354.21-.531.3a.257.257,0,0,1-.178-.017c-.4-.151-.8-.309-1.194-.462-.171-.065-.345-.123-.537-.191l.154-.195A9.522,9.522,0,0,0,33.8,47.972c.017.182.036.345.049.507a.6.6,0,0,1-.265.582,2.959,2.959,0,0,0-1.161,1.808,3.911,3.911,0,0,1-.2.573.306.306,0,0,1-.487.163,4.565,4.565,0,0,1-.917-.74,3.133,3.133,0,0,0-1.239-.858,8.059,8.059,0,0,1-1.085-.558A1.239,1.239,0,0,1,28,48.762a5.285,5.285,0,0,0-.265-.651.483.483,0,0,0-.643-.265,8.449,8.449,0,0,0-2.305,1.182c-.191.133-.37.283-.6.455l.943.106a5.6,5.6,0,0,1,1.427.241,2.394,2.394,0,0,1,1.061.813c.357.474.72.94,1.09,1.423l-1.188.657a3.434,3.434,0,0,0,.413.32.981.981,0,0,1,.481.861,9.43,9.43,0,0,0,.142.98.8.8,0,0,1-.706,1.008,1.037,1.037,0,0,0-.942.8,5.23,5.23,0,0,1-.4.942.712.712,0,0,1-.889.337,4.112,4.112,0,0,1-.459-.126c-.415-.171-1.021.288-1.116.577a1.159,1.159,0,0,0,.007.341Z" transform="translate(-18.235 -45.768)" fill="#eb0000"/>
  <path id="Path_25" data-name="Path 25" d="M45.86,128.247l1.232-.32a.738.738,0,0,0,.184-.049c.314-.191.546-.052.761.179a2.676,2.676,0,0,0,.228.195c.028-.18.058-.332.072-.485a.322.322,0,0,1,.255-.318c.546-.19,1.081-.413,1.62-.623l.147-.057a5.43,5.43,0,0,1-1.7,1.7c.5.219.962.447,1.443.633a8.562,8.562,0,0,0,3.433.584,20.227,20.227,0,0,0,2.085-.265c.042-.007.1-.089.1-.141a2.924,2.924,0,0,0-.363-1.675c-.133-.265-.24-.531-.355-.8a.979.979,0,0,1,.016-.886c.34-.619.694-1.23,1.048-1.841a.451.451,0,0,1,.168-.15c1.572-.9,3.145-1.793,4.743-2.7a1.25,1.25,0,0,0,.828.416,1.9,1.9,0,0,0,1.836-1.093c.19-.479.365-.964.549-1.446a.407.407,0,0,1,.133-.167A10.964,10.964,0,0,1,59.11,129.6,10.961,10.961,0,0,1,45.86,128.247Z" transform="translate(-41.347 -109.226)" fill="#eb0000"/>
  <path id="Path_26" data-name="Path 26" d="M155.382,57.644c-.714.371-1.365.781-2.069,1.061-.572.223-.635.679-.767,1.137-.113.4-.21.8-.316,1.194a.946.946,0,0,1-.759.564c-.162,0-.251-.115-.279-.322-.064-.46-.142-.919-.2-1.379a2.849,2.849,0,0,0-1.34-2c-.241-.166-.476-.344-.716-.513-.155-.11-.186-.237-.064-.383a.879.879,0,0,1,.978-.332c.562.17,1.133.316,1.7.468a.463.463,0,0,0,.414-.069c.684-.476,1.377-.942,2.065-1.411.02-.013.037-.029.074-.058-.255-.232-.5-.458-.744-.676-.764-.68-1.536-1.35-2.291-2.04-.4-.362-.769-.749-1.139-1.137-.218-.228-.206-.255.017-.478.475-.475.5-.487,1.1-.19,1.715.844,3.425,1.7,5.137,2.545a1.711,1.711,0,0,1,.222.107.788.788,0,0,0,.89-.024c.6-.3,1.21-.59,1.836-.832a2.2,2.2,0,0,1,1.551-.036.557.557,0,0,1,.4.829,2.945,2.945,0,0,1-.968,1.279,15.306,15.306,0,0,1-1.26.893,1.516,1.516,0,0,0-.743,1.248q-.084,1.472-.191,2.943c-.066.9-.149,1.795-.223,2.691-.013.146-.028.292-.041.438a.4.4,0,0,1-.287.367c-.265.086-.531.174-.8.247a.265.265,0,0,1-.338-.228c-.123-.524-.253-1.047-.342-1.577-.11-.651-.188-1.309-.265-1.966-.065-.562-.109-1.129-.164-1.693C155.439,58.1,155.411,57.891,155.382,57.644Zm3.494-4.083a1.387,1.387,0,0,1,.674,1.112.594.594,0,0,0,.253-.842A.632.632,0,0,0,158.875,53.562Z" transform="translate(-130.627 -50.198)" fill="#eb0000"/>
  <path id="Path_27" data-name="Path 27" d="M30.477,111.86c.236.133.456.265.679.383a.325.325,0,0,1,.214.305c0,.106.05.215.042.32a.354.354,0,0,1-.1.247c-.726.464-1.451.928-2.191,1.37-1.828,1.09-3.687,2.122-5.6,3.063a46.825,46.825,0,0,1-5.571,2.377,14.56,14.56,0,0,1-2.825.663,9.75,9.75,0,0,1-1.548.078,2.005,2.005,0,0,1-1.628-.97.849.849,0,0,1-.092-.6,1.91,1.91,0,0,1,1.093-1.215c-.089.2-.167.346-.227.5-.133.352.04.58.413.6a5.872,5.872,0,0,0,2.048-.367c1.83-.531,3.641-1.112,5.421-1.791a49.535,49.535,0,0,0,8.916-4.348C29.845,112.276,30.167,112.06,30.477,111.86Z" transform="translate(-11.834 -103.093)" fill="#eb0000"/>
  <path id="Path_28" data-name="Path 28" d="M128.51,90.693a1.251,1.251,0,0,0-.062,1.354c-.4.251-.789.505-1.194.743a.9.9,0,0,1-.724.011,2.411,2.411,0,0,1-.41-.223l.382-.1a.57.57,0,0,0,.491-.679,3.693,3.693,0,0,1-.008-.684.715.715,0,0,1,.867-.627A4.821,4.821,0,0,1,128.51,90.693Z" transform="translate(-110.961 -84.541)" fill="#eb0000"/>
  <path id="Path_29" data-name="Path 29" d="M109.293,104.8a.516.516,0,0,1-.607.344c-.066-.028-.164-.115-.158-.162a.357.357,0,0,1,.149-.24A.577.577,0,0,1,109.293,104.8Z" transform="translate(-95.702 -96.86)" fill="#eb0000"/>
  <path id="Path_30" data-name="Path 30" d="M93.77,120.527a.656.656,0,0,1-.541.3c-.058.008-.175-.061-.182-.106a.333.333,0,0,1,.06-.265A.475.475,0,0,1,93.77,120.527Z" transform="translate(-82.269 -110.458)" fill="#eb0000"/>
</svg>
