<svg xmlns="http://www.w3.org/2000/svg" width="11.8" height="12.947" viewBox="0 0 11.8 12.947">
    <defs>
        <clipPath id="02piiid8fa">
            <path data-name="Rectangle 813" style="fill:#c7c7c7" d="M0 0h11.8v12.947H0z"/>
        </clipPath>
    </defs>
    <g data-name="Mask Group 785" style="clip-path:url(#02piiid8fa)">
        <path data-name="Path 1188" d="M1.185 12.946H0a5.983 5.983 0 0 1 3.585-5.407 4.109 4.109 0 0 1-1.8-3.505 3.925 3.925 0 0 1 1.247-2.858 4.127 4.127 0 1 1 5.193 6.375 5.973 5.973 0 0 1 2.591 2.169 5.814 5.814 0 0 1 .984 3.22h-1.173A4.677 4.677 0 0 0 8.6 9.095a4.563 4.563 0 0 0-2.859-.844 4.726 4.726 0 0 0-4.56 4.7M5.9 7.062a2.943 2.943 0 1 0-2.94-2.949A2.931 2.931 0 0 0 5.9 7.062" style="fill:#c7c7c7"/>
    </g>
</svg>
