<svg xmlns="http://www.w3.org/2000/svg" width="18.735" height="14.035" viewBox="0 0 18.735 14.035">
    <path data-name="Path 10" d="M327.42 436.75v8.6c-.007.01-.018.019-.02.03a1.735 1.735 0 0 1-1.874 1.466H310.4a1.725 1.725 0 0 1-1.711-1.756q-.005-4.1 0-8.194a1.309 1.309 0 0 1 .015-.139c.033.018.049.025.065.035l7.59 5.057a2.819 2.819 0 0 0 3.394 0l6.783-4.52c.291-.198.59-.387.884-.579z" transform="translate(-308.685 -432.809)" style="fill:#143d61"/>
    <path data-name="Path 11" d="M327.448 358.076a2.5 2.5 0 0 1-.217.554 2.193 2.193 0 0 1-.541.581q-3.814 2.563-7.649 5.1a1.638 1.638 0 0 1-1.924 0q-3.84-2.545-7.666-5.108a1.628 1.628 0 0 1-.672-1.826 1.725 1.725 0 0 1 1.59-1.267h15.257a1.737 1.737 0 0 1 1.731 1.181c.034.1.061.208.091.312z" transform="translate(-308.714 -356.11)" style="fill:#143d61"/>
</svg>
