<svg xmlns="http://www.w3.org/2000/svg" width="22.048" height="13.759" viewBox="0 0 22.048 13.759">
  <g id="Menu" transform="translate(0.381 0.375)">
    <path id="Path_7" data-name="Path 7" d="M236.688,486.949h9.763a1.623,1.623,0,0,0,.292-.013.723.723,0,0,0-.1-1.431c-.06,0-.12,0-.181,0H226.917a1.269,1.269,0,0,0-.377.043.712.712,0,0,0-.488.773.734.734,0,0,0,.672.626c.075.005.15,0,.225,0Z" transform="translate(-226.044 -485.503)" fill="#606060" stroke="#606060" stroke-width="0.75"/>
    <path id="Path_8" data-name="Path 8" d="M236.589,677.53h-9.853a.723.723,0,0,0-.747.959.7.7,0,0,0,.623.482,2.039,2.039,0,0,0,.225,0h19.5a1.384,1.384,0,0,0,.378-.037.713.713,0,0,0,.512-.754.734.734,0,0,0-.675-.647c-.075-.006-.15,0-.225,0Z" transform="translate(-225.944 -665.964)" fill="#606060" stroke="#606060" stroke-width="0.75"/>
    <path id="Path_9" data-name="Path 9" d="M232.225,581.51h-5a.72.72,0,0,0-.723.96.706.706,0,0,0,.624.482,1.941,1.941,0,0,0,.2,0h9.807a1.47,1.47,0,0,0,.292-.016.723.723,0,0,0-.149-1.423c-.894-.005-1.788,0-2.683,0Z" transform="translate(-216.711 -575.727)" fill="#606060" stroke="#606060" stroke-width="0.75"/>
  </g>
</svg>
