<svg xmlns="http://www.w3.org/2000/svg" width="15.328" height="16.672" viewBox="0 0 15.328 16.672">
    <path data-name="Path 15" d="M450.927 672.629a2.972 2.972 0 0 1-.986-.351 2.35 2.35 0 0 1-.871-1.008h4.174a2.162 2.162 0 0 1-.6.8 2.228 2.228 0 0 1-1.2.53.279.279 0 0 0-.059.023z" transform="translate(-443.489 -655.957)" style="fill:#143d61"/>
    <path data-name="Path 16" d="M319.882 310.408a35.19 35.19 0 0 1-4.093-.211 16.421 16.421 0 0 1-2.507-.465 1.387 1.387 0 0 1-.778-2.2 17.022 17.022 0 0 0 1.456-2.231 7.612 7.612 0 0 0 .895-2.766c.037-.367.031-.738.075-1.1a5 5 0 0 1 3.159-4.016.183.183 0 0 0 .136-.185 1.69 1.69 0 0 1 1.5-1.482 1.668 1.668 0 0 1 1.727 1.13 1.1 1.1 0 0 1 .082.329c0 .141.073.18.179.225a4.971 4.971 0 0 1 3.108 3.881 4.684 4.684 0 0 1 .064.794 6.751 6.751 0 0 0 .713 2.781 13.145 13.145 0 0 0 1.594 2.545 1.419 1.419 0 0 1 .267 1.418 1.373 1.373 0 0 1-1.019.891 15.954 15.954 0 0 1-2.914.492c-1.211.087-2.425.147-3.637.219z" transform="translate(-312.213 -295.742)" style="fill:#143d61"/>
</svg>
