<svg id="Group_618" data-name="Group 618" xmlns="http://www.w3.org/2000/svg" xmlns:xlink="http://www.w3.org/1999/xlink" width="31.53" height="24.869" viewBox="0 0 31.53 24.869">
  <defs>
    <clipPath id="clip-path">
      <rect id="Rectangle_642" data-name="Rectangle 642" width="31.53" height="24.869" fill="#fff"/>
    </clipPath>
  </defs>
  <g id="Group_617" data-name="Group 617" transform="translate(0)" clip-path="url(#clip-path)">
    <path id="Path_1171" data-name="Path 1171" d="M44.333,60.1l-.2-1.922,4.375-2.828-.19.724c.137-.072.27-.137.4-.191l.62,1.3a5.284,5.284,0,0,1-.748.594,5.122,5.122,0,0,1-.672.376L47.6,60.341A4.4,4.4,0,0,1,48.265,60l.716,1.234a4.16,4.16,0,0,1-.663.539,3.985,3.985,0,0,1-.892.448l-.362,3.19-1.971,1.126-.307-3.415s-.55.258-.633.119c-.111-.186.547-.672.547-.672l-.173-1.893s-.8.483-.936.236c-.142-.268.742-.805.742-.805" transform="translate(-28.582 -41.665)" fill="#fff"/>
    <path id="Path_1172" data-name="Path 1172" d="M31.5,1.045c.254,1.334-1.244,4.353-10.98,11.31l-.3.246c-1.837,1.354-8.708,6.2-10.014,6.962-1.528.942-3.134,1.255-3.415,1.045L4.618,19.483a14.113,14.113,0,0,1-2.88-.091c-.307-.059-.384-.472-.384-.472l1.513-.7L1.049,16.837l1.681-1.1,4.408.612c1.427-1.313,3.472-2.959,5.357-4.884l-.377-.136-.212-.073s-.963.856-1.231.527c-.21-.259.6-.738.6-.738L9.2,10.4s-.9.888-1.138.6c-.185-.218.539-.772.539-.772l-2-.516s-.98.737-1.178.487c-.126-.16.476-.658.476-.658L0,8.072l2.513-2.1,5.865.379A15.82,15.82,0,0,1,10.3,4.89l1.118,1.08a7.017,7.017,0,0,1-.651.554l2.7-.007a9.821,9.821,0,0,1,.751-.657,7.169,7.169,0,0,1,.921-.648l.873,1.15c-.111.117-.233.235-.36.354l1.751.1c6.61-5.331,10.29-7.045,13.45-6.8.794.061.638.989.655,1.023M4.435,19.455a1.237,1.237,0,0,1,.177.031,1.19,1.19,0,0,0-.177-.031" transform="translate(0 0.001)" fill="#fff"/>
  </g>
</svg>
