<svg xmlns="http://www.w3.org/2000/svg" width="23.024" height="23.26" viewBox="0 0 23.024 23.26">
  <path id="Residence" d="M239.25,325.6h-7.933a3.5,3.5,0,0,1-3.519-2.8,3.556,3.556,0,0,1-.074-.736q-.008-5.9,0-11.791a3.348,3.348,0,0,1,1.8-3.091q4.006-2.227,8.043-4.4a3.353,3.353,0,0,1,3.33.008q3.975,2.134,7.934,4.3a3.46,3.46,0,0,1,1.913,3.245V322a3.483,3.483,0,0,1-2.727,3.5,4.335,4.335,0,0,1-.95.09Q243.157,325.6,239.25,325.6Zm-.03-3.33a4.6,4.6,0,0,0,4.415-3.3,2.262,2.262,0,0,0,.1-.562.731.731,0,0,0-.6-.729.749.749,0,0,0-.842.481c-.042.112-.064.231-.1.346a3.067,3.067,0,0,1-5.942-.168.781.781,0,1,0-1.509.368,4.611,4.611,0,0,0,4.477,3.565Z" transform="translate(-227.72 -302.338)" fill="#306a9e"/>
</svg>
