<svg xmlns="http://www.w3.org/2000/svg" width="25" height="25" viewBox="0 0 25 25">
  <g id="Search" transform="translate(25.008 -0.007) rotate(90)">
    <path id="Path_1082" data-name="Path 1082" d="M256.173,291.965a8.81,8.81,0,0,1,13.088,11.758l1.089,1.089.449-.449a.448.448,0,0,1,.624-.01l6.484,6.057a2.325,2.325,0,0,1-3.288,3.288l-6.057-6.482a.449.449,0,0,1,.011-.624l.449-.449-1.089-1.089a8.81,8.81,0,0,1-11.758-13.088ZM257.206,293a7.343,7.343,0,1,0,5.2-2.155A7.349,7.349,0,0,0,257.206,293Z" transform="translate(-253.59 -289.38)" fill="#fff"/>
    <path id="Path_1083" data-name="Path 1083" d="M304.135,343.437a.559.559,0,1,1-1.083-.281,6.036,6.036,0,0,1,4.333-4.333.559.559,0,1,1,.277,1.084,4.932,4.932,0,0,0-2.241,1.287,4.883,4.883,0,0,0-1.287,2.242Z" transform="translate(-300.093 -335.866)" fill="#fff"/>
  </g>
</svg>
