<svg xmlns="http://www.w3.org/2000/svg" xmlns:xlink="http://www.w3.org/1999/xlink" width="190" height="18.515" viewBox="0 0 190 18.515">
  <defs>
    <clipPath id="clip-path">
      <rect id="Rectangle_838" data-name="Rectangle 838" width="190" height="18.515" fill="none"/>
    </clipPath>
  </defs>
  <g id="Group_827" data-name="Group 827" clip-path="url(#clip-path)">
    <path id="Path_1204" data-name="Path 1204" d="M64.347,3.522c.561-.019,1.122,0,1.686-.006h.232V.594c-.3-.029-.614-.073-.928-.088C64.76.48,64.183.451,63.606.464a4.243,4.243,0,0,0-2.442.755A3.653,3.653,0,0,0,59.7,3.659a8.561,8.561,0,0,0-.1,1.254c-.017.657,0,1.312,0,1.969v.245h-2.8v3.265h2.78V18.6h3.4V10.405h2.771c.142-1.085.281-2.16.427-3.279h-.623c-.788,0-2.6,0-2.6,0s.008-1.618.028-2.321c.028-.962.6-1.255,1.369-1.283" transform="translate(-10.3 -0.083)" fill="#fff" fill-rule="evenodd"/>
    <path id="Path_1205" data-name="Path 1205" d="M156.029,13a4.207,4.207,0,0,1-3.9-2.911,4.178,4.178,0,0,0,1.8-.054.37.37,0,0,0,.06-.028,4.184,4.184,0,0,1-2.724-1.925,4.07,4.07,0,0,1-.615-2.231,4.128,4.128,0,0,0,1.867.508,4.215,4.215,0,0,1-1.727-2.544,4.154,4.154,0,0,1,.45-3.038,12,12,0,0,0,8.651,4.383c-.025-.166-.051-.312-.067-.459a4.065,4.065,0,0,1,.613-2.742,4.027,4.027,0,0,1,2.845-1.9,4.086,4.086,0,0,1,3.672,1.169.213.213,0,0,0,.223.066,8.464,8.464,0,0,0,2.44-.937.506.506,0,0,1,.055-.029s.011,0,.028,0a4.291,4.291,0,0,1-1.8,2.282,8.028,8.028,0,0,0,2.336-.629l.016.019c-.16.21-.315.425-.481.63a8.231,8.231,0,0,1-1.526,1.449.142.142,0,0,0-.069.132,11.512,11.512,0,0,1-.079,1.862,12.344,12.344,0,0,1-1.081,3.735,12.069,12.069,0,0,1-2.268,3.306,11.216,11.216,0,0,1-5.764,3.212,12.665,12.665,0,0,1-2.336.278,11.843,11.843,0,0,1-6.713-1.8c-.026-.015-.052-.034-.1-.064a8.479,8.479,0,0,0,4.2-.579A8.306,8.306,0,0,0,156.029,13" transform="translate(-27.174 0)" fill="#fff" fill-rule="evenodd"/>
    <path id="Path_1206" data-name="Path 1206" d="M115.8,5.214a4.661,4.661,0,0,0-1.422-3A4.875,4.875,0,0,0,111.155.905a63.54,63.54,0,0,0-8.695.1,4.437,4.437,0,0,0-3.8,3.414c-.418,1.5-.336,8.39-.091,9.869a4.45,4.45,0,0,0,3.532,3.834,52.065,52.065,0,0,0,9.731.065,4.457,4.457,0,0,0,3.85-3.515c.4-1.536.262-8.069.121-9.454M114.182,14a2.977,2.977,0,0,1-2.8,2.656c-1.418.156-7.75.241-9.066-.127a2.884,2.884,0,0,1-2.187-2.483,58.909,58.909,0,0,1,0-8.872,2.971,2.971,0,0,1,2.786-2.644,62,62,0,0,1,8.653.035,2.975,2.975,0,0,1,2.65,2.8A63.082,63.082,0,0,1,114.182,14m-7.028-8.913a4.507,4.507,0,1,0,4.5,4.51,4.507,4.507,0,0,0-4.5-4.51m-.031,7.419a2.915,2.915,0,1,1,2.941-2.888,2.914,2.914,0,0,1-2.941,2.888m5.77-7.59a1.055,1.055,0,1,1-1.053-1.058,1.055,1.055,0,0,1,1.053,1.058" transform="translate(-17.839 -0.146)" fill="#fff"/>
    <path id="Path_1207" data-name="Path 1207" d="M115.8,5.214a4.661,4.661,0,0,0-1.422-3A4.875,4.875,0,0,0,111.155.905a63.54,63.54,0,0,0-8.695.1,4.437,4.437,0,0,0-3.8,3.414c-.418,1.5-.336,8.39-.091,9.869a4.45,4.45,0,0,0,3.532,3.834,52.065,52.065,0,0,0,9.731.065,4.457,4.457,0,0,0,3.85-3.515c.4-1.536.262-8.069.121-9.454M114.182,14a2.977,2.977,0,0,1-2.8,2.656c-1.418.156-7.75.241-9.066-.127a2.884,2.884,0,0,1-2.187-2.483,58.909,58.909,0,0,1,0-8.872,2.971,2.971,0,0,1,2.786-2.644,62,62,0,0,1,8.653.035,2.975,2.975,0,0,1,2.65,2.8A63.082,63.082,0,0,1,114.182,14m-7.028-8.913a4.507,4.507,0,1,0,4.5,4.51,4.507,4.507,0,0,0-4.5-4.51m-.031,7.419a2.915,2.915,0,1,1,2.941-2.888,2.914,2.914,0,0,1-2.941,2.888m5.77-7.59a1.055,1.055,0,1,1-1.053-1.058,1.055,1.055,0,0,1,1.053,1.058" transform="translate(-17.839 -0.146)" fill="#fff"/>
    <path id="Path_1208" data-name="Path 1208" d="M207.076,16.158a2.6,2.6,0,0,1-1.717-1.668c-.743-2.044-.963-10.593.467-12.278a2.777,2.777,0,0,1,1.869-.993c3.856-.415,15.774-.355,17.148.139A2.688,2.688,0,0,1,226.53,2.98c.813,2.113.842,9.8-.108,11.835a2.608,2.608,0,0,1-1.209,1.221c-1.438.754-16.244.745-18.137.121M213.2,12.15l6.945-3.6L213.2,4.925Z" transform="translate(-37.138 -0.171)" fill="#fff" fill-rule="evenodd"/>
    <path id="Path_1209" data-name="Path 1209" d="M1.345,8.36,14.411,2.977C15.7,2.416,20.076.622,20.076.622s2.019-.785,1.85,1.122c-.056.785-.5,3.532-.953,6.5l-1.4,8.8s-.112,1.289-1.065,1.514-2.524-.785-2.8-1.009c-.224-.168-4.206-2.692-5.664-3.925a1.062,1.062,0,0,1,.056-1.794c2.019-1.85,4.43-4.15,5.888-5.608.673-.673,1.346-2.243-1.458-.336L6.616,11.22a3.294,3.294,0,0,1-2.58.056C2.354,10.772.391,10.1.391,10.1S-.955,9.257,1.345,8.36Z" transform="translate(0 -0.084)" fill="#fff"/>
  </g>
</svg>
