<svg xmlns="http://www.w3.org/2000/svg" width="21.936" height="18.137" viewBox="0 0 21.936 18.137">
    <path data-name="Path 1209" d="m1.345 8.36 13.066-5.383C15.7 2.416 20.076.622 20.076.622s2.019-.785 1.85 1.122c-.056.785-.5 3.532-.953 6.5l-1.4 8.8s-.112 1.289-1.065 1.514-2.524-.785-2.8-1.009c-.224-.168-4.206-2.692-5.664-3.925a1.062 1.062 0 0 1 .056-1.794c2.019-1.85 4.43-4.15 5.888-5.608.673-.673 1.346-2.243-1.458-.336L6.616 11.22a3.294 3.294 0 0 1-2.58.056C2.354 10.772.391 10.1.391 10.1s-1.346-.843.954-1.74z" transform="translate(0 -.461)" style="fill:#fff"/>
</svg>
