<svg xmlns="http://www.w3.org/2000/svg" width="15.328" height="15.354" viewBox="0 0 15.328 15.354">
    <path data-name="Path 12" d="M344.861 347.323a7.289 7.289 0 0 1-1.79-.4 14.337 14.337 0 0 1-4.4-2.586 17.968 17.968 0 0 1-4.5-5.418 10 10 0 0 1-1.043-2.919 1.14 1.14 0 0 1 .176-.92 16.809 16.809 0 0 1 2.355-2.773 2.538 2.538 0 0 1 .31-.241.391.391 0 0 1 .557.037 1.539 1.539 0 0 1 .245.262 20.843 20.843 0 0 1 1.868 3.1c.281.592.253.693-.239 1.131-.324.288-.646.578-.974.862a.223.223 0 0 0-.067.27 7.819 7.819 0 0 0 2.52 3.793 7.42 7.42 0 0 0 2.808 1.516.2.2 0 0 0 .238-.062c.275-.314.555-.621.829-.935.475-.545.579-.577 1.224-.264a20.465 20.465 0 0 1 3.014 1.819c.549.394.569.622.115 1.117a15.071 15.071 0 0 1-2.929 2.457 2.255 2.255 0 0 1-.318.149z" transform="translate(-333.1 -331.969)" style="fill:#143d61"/>
    <path data-name="Path 13" d="M512.44 333.48v-1.065a7.08 7.08 0 0 1 7.11 7.09h-1.078a6.066 6.066 0 0 0-6.031-6.025z" transform="translate(-504.231 -332.39)" style="fill:#143d61"/>
    <path data-name="Path 14" d="M516.9 396.545h-1.053a3.373 3.373 0 0 0-3.309-3.316v-1.049a4.345 4.345 0 0 1 4.362 4.365z" transform="translate(-504.327 -389.423)" style="fill:#143d61"/>
</svg>
