<svg xmlns="http://www.w3.org/2000/svg" width="20.931" height="22.521" viewBox="0 0 20.931 22.521">
  <path id="Train" d="M73.6,71.36c-5.754,0-10.46.588-10.46,4.74V87.366a4.437,4.437,0,0,0,4.579,4.15l-1.958,1.777v.588H81.451v-.588l-1.96-1.777a4.437,4.437,0,0,0,4.58-4.15V76.1c0-4.151-4.7-4.74-10.469-4.74ZM67.719,89.142a1.785,1.785,0,1,1,1.96-1.777A1.921,1.921,0,0,1,67.719,89.142Zm4.58-7.116H65.761V76.1H72.3Zm7.19,7.116a1.785,1.785,0,1,1,1.96-1.777,1.921,1.921,0,0,1-1.96,1.777Zm1.96-7.116H74.912V76.1h6.539Zm0,0" transform="translate(-63.14 -71.36)" fill="#306a9e"/>
</svg>
