<svg xmlns="http://www.w3.org/2000/svg" width="20.414" height="16.613" viewBox="0 0 20.414 16.613">
    <path data-name="Path 1205" d="M156.029 13a4.207 4.207 0 0 1-3.9-2.911 4.178 4.178 0 0 0 1.8-.054.37.37 0 0 0 .06-.028 4.184 4.184 0 0 1-2.724-1.925 4.07 4.07 0 0 1-.615-2.231 4.128 4.128 0 0 0 1.867.508 4.215 4.215 0 0 1-1.727-2.544 4.154 4.154 0 0 1 .45-3.038 12 12 0 0 0 8.651 4.383c-.025-.166-.051-.312-.067-.459a4.065 4.065 0 0 1 .613-2.742 4.027 4.027 0 0 1 2.845-1.9 4.086 4.086 0 0 1 3.672 1.169.213.213 0 0 0 .223.066 8.464 8.464 0 0 0 2.44-.937.506.506 0 0 1 .055-.029h.028a4.291 4.291 0 0 1-1.8 2.282 8.028 8.028 0 0 0 2.336-.629l.016.019c-.16.21-.315.425-.481.63a8.231 8.231 0 0 1-1.526 1.449.142.142 0 0 0-.069.132 11.512 11.512 0 0 1-.079 1.862 12.344 12.344 0 0 1-1.081 3.735 12.069 12.069 0 0 1-2.268 3.306 11.216 11.216 0 0 1-5.764 3.212 12.665 12.665 0 0 1-2.336.278 11.843 11.843 0 0 1-6.713-1.8c-.026-.015-.052-.034-.1-.064a8.479 8.479 0 0 0 4.2-.579A8.306 8.306 0 0 0 156.029 13" transform="translate(-149.838)" style="fill:#fff;fill-rule:evenodd"/>
</svg>
