<svg xmlns="http://www.w3.org/2000/svg" width="22.362" height="15.671" viewBox="0 0 22.362 15.671">
    <path data-name="Path 1208" d="M207.076 16.158a2.6 2.6 0 0 1-1.717-1.668c-.743-2.044-.963-10.593.467-12.278a2.777 2.777 0 0 1 1.869-.993c3.856-.415 15.774-.355 17.148.139a2.688 2.688 0 0 1 1.687 1.622c.813 2.113.842 9.8-.108 11.835a2.608 2.608 0 0 1-1.209 1.221c-1.438.754-16.244.745-18.137.121m6.124-4.007 6.945-3.6-6.945-3.625z" transform="translate(-204.776 -.943)" style="fill:#fff;fill-rule:evenodd"/>
</svg>
